<?xml version="1.0" standalone="no"?>
<!DOCTYPE svg PUBLIC "-//W3C//DTD SVG 20010904//EN"
 "http://www.w3.org/TR/2001/REC-SVG-20010904/DTD/svg10.dtd">
<svg version="1.0" xmlns="http://www.w3.org/2000/svg"
 width="180.000000pt" height="180.000000pt" viewBox="0 0 180.000000 180.000000"
 preserveAspectRatio="xMidYMid meet">

<g transform="translate(0.000000,180.000000) scale(0.100000,-0.100000)"
fill="#000000" stroke="none">
<path d="M1177 1630 c-44 -13 -57 -29 -57 -72 l0 -39 -48 7 c-58 7 -240 -10
-332 -33 -91 -22 -180 -66 -229 -114 -43 -41 -91 -127 -91 -164 0 -11 -5 -27
-10 -35 -9 -13 -14 -11 -35 13 -13 15 -27 43 -31 63 -5 28 -10 34 -23 28 -39
-17 -89 -15 -129 5 -49 25 -90 27 -99 5 -8 -21 26 -92 66 -137 47 -53 102 -78
184 -86 l69 -6 17 -55 c21 -66 37 -97 64 -127 11 -13 19 -24 16 -26 -2 -2 -23
-15 -46 -30 -52 -33 -77 -69 -69 -100 7 -30 73 -96 105 -104 16 -4 71 10 161
41 121 41 153 47 276 57 157 13 189 8 343 -47 135 -49 180 -43 217 28 20 39 7
67 -54 113 l-42 33 57 32 c110 62 229 211 221 278 -3 24 -7 27 -48 30 -24 2
-50 8 -56 13 -9 7 -24 -8 -54 -54 -50 -76 -87 -101 -152 -101 -142 0 -184 184
-58 249 16 8 64 20 107 26 43 6 80 12 82 14 2 2 -8 24 -23 49 -27 47 -68 77
-132 100 -38 13 -39 14 -40 66 -1 79 -43 105 -127 80z"/>
<path d="M1375 1207 c-18 -27 -12 -53 17 -68 27 -15 57 -2 64 28 14 55 -50 87
-81 40z"/>
</g>
</svg>
